<svg width="205" height="215" viewBox="0 0 205 215" fill="none" xmlns="http://www.w3.org/2000/svg">
<path d="M129.96 16.1433L142.313 37.5707L154.667 58.9957C160.872 69.7587 160.098 81.8662 154.667 91.2847C149.237 100.701 139.155 107.428 126.743 107.428H102.035H77.3278C64.9179 107.428 54.8337 100.701 49.4033 91.2847C43.9728 81.8662 43.1983 69.7587 49.4033 58.9957L61.7582 37.5707L74.1108 16.1433C80.3157 5.38035 91.1744 0 102.035 0C112.896 0 123.755 5.38035 129.96 16.1433ZM102.035 18.6649C90.3931 18.6649 79.8529 23.389 72.225 31.0294C64.5949 38.6697 59.8747 49.2239 59.8747 60.8817C59.8747 72.5395 64.5949 83.0937 72.225 90.734C79.8529 98.372 90.3931 103.098 102.035 103.098C113.678 103.098 124.218 98.372 131.848 90.734C139.478 83.0937 144.196 72.5395 144.196 60.8817C144.196 49.2239 139.478 38.6697 131.848 31.0294C124.218 23.389 113.678 18.6649 102.035 18.6649Z" fill="white"/>
<path d="M123.221 147.325C125.496 147.325 127.547 147.587 129.321 148.098C131.099 148.605 132.6 149.362 133.78 150.354C134.698 151.125 135.39 152.017 135.851 153.022C136.314 154.027 136.548 155.142 136.548 156.367V162.764V169.158C136.548 170.384 136.314 171.501 135.851 172.506C135.39 173.511 134.698 174.401 133.78 175.174C132.6 176.163 131.099 176.92 129.321 177.43C127.547 177.939 125.496 178.201 123.221 178.201H114.53H105.839C103.564 178.201 101.513 177.939 99.7372 177.43C97.9614 176.92 96.4606 176.163 95.2805 175.174C94.3617 174.401 93.6697 173.511 93.2091 172.506C92.7463 171.501 92.5126 170.384 92.5126 169.158V162.764V156.367C92.5126 155.142 92.7463 154.027 93.2091 153.022C93.6697 152.017 94.3617 151.125 95.2805 150.354C96.4606 149.362 97.9614 148.605 99.7372 148.098C101.513 147.587 103.564 147.325 105.839 147.325H114.53H123.221ZM123.221 140.892H114.53H105.839C99.421 140.892 94.4831 142.624 91.1492 145.423C87.8153 148.224 86.0877 152.093 86.0877 156.367V162.764V169.158C86.0877 173.433 87.8153 177.301 91.1492 180.103C94.4831 182.904 99.421 184.636 105.839 184.636H114.53H123.221C129.637 184.636 134.575 182.904 137.911 180.103C141.243 177.301 142.973 173.433 142.973 169.158V162.764V156.367C142.973 152.093 141.243 148.224 137.911 145.423C134.575 142.624 129.637 140.892 123.221 140.892ZM72.9766 179.428C72.5848 179.036 72.1219 178.728 71.6178 178.52C71.116 178.311 70.5707 178.201 70.0162 178.201H54.041H38.0657C35.7927 178.201 33.742 177.939 31.9662 177.43C30.1904 176.92 28.6896 176.163 27.5095 175.174C26.5907 174.401 25.8987 173.511 25.4358 172.506C24.9753 171.501 24.7416 170.384 24.7416 169.158V158.698V148.236C24.7416 147.986 24.8424 147.756 25.0097 147.594C25.1723 147.428 25.3992 147.325 25.6512 147.325H40.5518H55.4501C57.7254 147.325 59.7739 147.587 61.552 148.098C63.3255 148.605 64.8286 149.362 66.0086 150.354C66.9252 151.125 67.6171 152.017 68.08 153.022C68.5429 154.027 68.7766 155.142 68.7766 156.367V162.379V168.388C68.7766 169.142 69.0813 169.824 69.574 170.319C70.0689 170.813 70.7494 171.12 71.5033 171.12H71.989H72.4748C73.2286 171.12 73.9092 170.813 74.4041 170.319C74.8967 169.824 75.2015 169.142 75.2015 168.388V162.379V156.367C75.2015 152.093 73.4715 148.224 70.1376 145.423C66.8037 142.624 61.8659 140.892 55.4501 140.892H38.2467H21.0433C20.2895 140.892 19.609 141.197 19.114 141.69C18.6191 142.186 18.3166 142.867 18.3166 143.622V156.39V169.158C18.3166 173.433 20.0443 177.301 23.3782 180.103C26.7121 182.904 31.65 184.636 38.0657 184.636H53.0992H68.1304C68.4375 184.636 68.7376 184.696 69.0149 184.811C69.2944 184.928 69.5488 185.098 69.7664 185.313L73.0568 188.608L76.3472 191.903C76.8788 192.437 77.5776 192.704 78.2742 192.704C78.973 192.704 79.6719 192.437 80.2035 191.905L80.538 191.57L80.8726 191.235C81.411 190.696 81.6791 189.989 81.6791 189.285C81.6791 188.578 81.411 187.872 80.8726 187.332L76.9246 183.381L72.9766 179.428ZM169.034 140.933C163.171 140.933 158.959 142.259 156.212 144.404C153.467 146.55 152.188 149.514 152.188 152.786V153.467V154.149C152.188 157.423 153.467 160.385 156.212 162.53C158.959 164.675 163.171 166.001 169.034 166.001H178.149H187.262C189.253 166.001 191.033 166.19 192.537 166.547C194.037 166.905 195.261 167.431 196.132 168.112C196.668 168.532 197.055 168.996 197.309 169.622C197.564 170.251 197.683 171.038 197.683 172.102C197.683 173.167 197.564 173.954 197.309 174.58C197.055 175.209 196.668 175.672 196.132 176.09C195.261 176.771 194.037 177.299 192.537 177.655C191.033 178.013 189.253 178.201 187.262 178.201H176.479H165.698C164.47 178.201 163.262 177.964 162.142 177.517C161.021 177.067 159.983 176.406 159.094 175.558L158.368 174.867L157.642 174.174C157.087 173.649 156.372 173.396 155.667 173.415C154.961 173.435 154.26 173.724 153.737 174.28L153.423 174.615L153.107 174.947C152.587 175.502 152.34 176.214 152.358 176.918C152.378 177.62 152.665 178.318 153.215 178.841L153.941 179.534L154.668 180.224C156.157 181.64 157.887 182.744 159.759 183.492C161.631 184.242 163.645 184.636 165.698 184.636H176.479H187.262C193.128 184.636 197.339 183.308 200.084 181.165C202.831 179.02 204.11 176.055 204.11 172.781V172.102V171.421C204.11 168.147 202.831 165.185 200.084 163.039C197.339 160.894 193.128 159.568 187.262 159.568H178.149H169.034C167.045 159.568 165.265 159.38 163.762 159.022C162.259 158.666 161.037 158.136 160.167 157.457C159.628 157.037 159.241 156.574 158.987 155.945C158.735 155.319 158.615 154.532 158.615 153.467C158.615 152.403 158.735 151.616 158.987 150.989C159.241 150.363 159.628 149.899 160.167 149.48C161.037 148.798 162.259 148.27 163.762 147.912C165.265 147.557 167.045 147.369 169.034 147.369L178.937 147.348L188.841 147.325C190.027 147.325 191.191 147.545 192.28 147.963C193.368 148.38 194.381 148.998 195.263 149.789L196.18 150.615L197.099 151.439C197.662 151.948 198.382 152.18 199.085 152.141C199.789 152.104 200.476 151.799 200.985 151.232L201.292 150.893L201.599 150.551C202.107 149.984 202.339 149.264 202.302 148.559C202.266 147.853 201.959 147.162 201.393 146.653L200.476 145.827L199.557 145.003C198.086 143.679 196.395 142.651 194.58 141.954C192.763 141.256 190.82 140.892 188.841 140.892L178.937 140.912L169.034 140.933ZM0.00195312 143.649V162.764V181.876C0.00195312 182.638 0.308996 183.329 0.808508 183.829C1.30802 184.327 1.99542 184.636 2.75615 184.636H3.21441H3.67268C4.43341 184.636 5.12311 184.327 5.62033 183.829C6.11984 183.329 6.42917 182.638 6.42917 181.876V162.764V143.649C6.42917 142.888 6.11984 142.197 5.62033 141.699C5.12311 141.199 4.43341 140.892 3.67268 140.892H3.21441H2.75615C1.99542 140.892 1.30802 141.199 0.808508 141.699C0.308996 142.197 0.00195312 142.888 0.00195312 143.649Z" fill="white"/>
<path d="M0 203.751V203.178V202.606H3.201H6.402V203.178V203.751H5.10052H3.79675V209.028V214.306H3.201H2.60526V209.028V203.751H1.30148H0Z" fill="white"/>
<path d="M15.5926 202.312C16.4794 202.312 17.2905 202.462 18.0306 202.755C18.7707 203.051 19.4398 203.494 20.0355 204.086C20.6313 204.678 21.0804 205.336 21.3783 206.064C21.6761 206.793 21.8251 207.587 21.8251 208.452C21.8251 209.308 21.6761 210.1 21.3783 210.827C21.0804 211.554 20.6359 212.215 20.0401 212.812C19.4467 213.408 18.7845 213.856 18.0604 214.154C17.3363 214.452 16.5458 214.601 15.6888 214.601C14.8227 214.601 14.023 214.452 13.2921 214.156C12.5612 213.858 11.8967 213.413 11.3009 212.818C10.7052 212.224 10.2584 211.568 9.96048 210.85C9.66261 210.132 9.51367 209.352 9.51367 208.507C9.51367 207.945 9.58012 207.404 9.7176 206.883C9.85279 206.362 10.0567 205.862 10.3294 205.382C10.5998 204.903 10.9206 204.476 11.2895 204.1C11.6607 203.724 12.08 203.4 12.5497 203.127C13.0194 202.856 13.5052 202.652 14.0139 202.517C14.5203 202.381 15.0473 202.312 15.5926 202.312ZM15.6453 203.451C15.2122 203.451 14.7929 203.508 14.3828 203.62C13.9726 203.733 13.5739 203.9 13.1867 204.125C12.7995 204.352 12.4558 204.616 12.1533 204.921C11.8508 205.224 11.5896 205.568 11.372 205.949C11.1566 206.332 10.9916 206.736 10.8839 207.161C10.7739 207.587 10.7212 208.035 10.7212 208.505C10.7212 209.2 10.8404 209.84 11.081 210.428C11.3215 211.015 11.6836 211.547 12.1648 212.027C12.6459 212.506 13.1752 212.864 13.7572 213.103C14.337 213.344 14.9671 213.463 15.6453 213.463C16.099 213.463 16.5344 213.408 16.956 213.298C17.3753 213.188 17.7763 213.023 18.1635 212.802C18.5484 212.582 18.8921 212.323 19.1946 212.02C19.4948 211.719 19.7537 211.378 19.9691 210.997C20.1845 210.614 20.3471 210.21 20.4548 209.785C20.5625 209.361 20.6175 208.916 20.6175 208.45C20.6175 207.984 20.5625 207.544 20.4548 207.122C20.3471 206.704 20.1845 206.305 19.9691 205.928C19.7537 205.554 19.4925 205.215 19.1877 204.917C18.8853 204.616 18.5347 204.352 18.1429 204.125C17.7511 203.9 17.3455 203.733 16.9308 203.62C16.5137 203.508 16.0853 203.451 15.6453 203.451Z" fill="white"/>
<path d="M37.0489 204.571L36.5975 205L36.1438 205.429C35.8185 205.11 35.4771 204.827 35.1196 204.584C34.7644 204.341 34.391 204.135 34.0037 203.969C33.6142 203.804 33.2315 203.68 32.8535 203.598C32.4777 203.515 32.1042 203.474 31.7353 203.474C31.277 203.474 30.8302 203.529 30.3949 203.641C29.9572 203.754 29.5333 203.923 29.1186 204.148C28.7038 204.375 28.3372 204.639 28.0141 204.944C27.6934 205.25 27.4207 205.596 27.1916 205.982C26.9647 206.367 26.7929 206.764 26.6806 207.172C26.566 207.581 26.5087 207.998 26.5087 208.427C26.5087 208.868 26.5683 209.297 26.6852 209.715C26.8043 210.134 26.9808 210.54 27.2168 210.937C27.4505 211.334 27.7323 211.688 28.0577 212C28.3831 212.309 28.7542 212.58 29.169 212.807C29.586 213.032 30.0214 213.202 30.4773 213.317C30.931 213.429 31.4076 213.486 31.9026 213.486C32.5029 213.486 33.0574 213.402 33.5661 213.232C34.0748 213.062 34.5376 212.807 34.9523 212.468C35.3694 212.128 35.6993 211.738 35.9445 211.3C36.1919 210.859 36.3523 210.368 36.4303 209.827H34.5674H32.7045V209.263V208.698H35.2227H37.7409C37.734 209.602 37.5988 210.414 37.3285 211.132C37.0627 211.848 36.6617 212.472 36.1324 213.005C35.6008 213.537 34.9798 213.934 34.2695 214.2C33.5592 214.466 32.7595 214.599 31.8705 214.599C30.7913 214.599 29.822 214.416 28.9673 214.046C28.1127 213.679 27.3703 213.126 26.7402 212.387C26.2544 211.821 25.8901 211.21 25.6495 210.554C25.4066 209.898 25.2852 209.196 25.2852 208.453C25.2852 207.897 25.3562 207.363 25.4937 206.847C25.6334 206.33 25.842 205.835 26.1192 205.357C26.3988 204.88 26.7287 204.456 27.1091 204.082C27.4894 203.71 27.9225 203.389 28.4083 203.118C28.8917 202.85 29.4073 202.648 29.9549 202.512C30.5048 202.379 31.0845 202.311 31.6963 202.311C32.1913 202.311 32.6702 202.356 33.1376 202.446C33.6027 202.535 34.0541 202.668 34.4918 202.847C34.9294 203.026 35.3602 203.26 35.7864 203.547C36.2126 203.834 36.6342 204.176 37.0489 204.571Z" fill="white"/>
<path d="M42.3486 202.606H45.6963H49.044V203.18V203.751H46.2806H43.5172V205.585V207.418H46.2554H48.9958V207.991V208.563H46.2554H43.5172V210.862V213.161H46.2554H48.9958V213.732V214.306H45.6734H42.3486V208.455V202.606Z" fill="white"/>
<path d="M53.7246 203.751V203.178V202.606H56.9256H60.1266V203.178V203.751H58.8228H57.5214V209.028V214.306H56.9256H56.3299V209.028V203.751H55.0284H53.7246Z" fill="white"/>
<path d="M64.5264 202.606H65.1107H65.6949V205.059V207.514H68.6691H71.6433V205.059V202.606H72.2276H72.8096V208.455V214.306H72.2276H71.6433V211.483V208.659H68.6691H65.6949V211.483V214.306H65.1107H64.5264V208.455V202.606Z" fill="white"/>
<path d="M77.8438 202.606H81.1914H84.539V203.18V203.751H81.7734H79.0078V205.585V207.418H81.7482H84.4886V207.991V208.563H81.7482H79.0078V210.862V213.161H81.7482H84.4886V213.732V214.306H81.1662H77.8438V208.455V202.606Z" fill="white"/>
<path d="M89.3535 202.606H90.5175H91.6815C92.33 202.606 92.8753 202.62 93.313 202.645C93.7529 202.673 94.0874 202.712 94.3189 202.765C94.6649 202.845 94.9788 202.969 95.2629 203.141C95.5447 203.311 95.7945 203.526 96.0099 203.788C96.2276 204.05 96.3902 204.341 96.5002 204.665C96.6079 204.986 96.6629 205.337 96.6629 205.72C96.6629 206.039 96.624 206.337 96.5506 206.617C96.475 206.897 96.3627 207.159 96.2138 207.399C96.0626 207.643 95.8816 207.854 95.6685 208.035C95.4554 208.219 95.2079 208.37 94.9307 208.494C94.6511 208.618 94.3212 208.712 93.9362 208.774C93.5536 208.838 93.1182 208.87 92.6279 208.872L94.729 211.589L96.8279 214.306H96.1061H95.3843L93.2832 211.589L91.182 208.872H90.8521H90.5221V211.589V214.306H89.9378H89.3535V208.455V202.606ZM90.5221 203.751V205.741V207.728L91.528 207.737L92.5339 207.744C92.9257 207.744 93.2648 207.725 93.5513 207.689C93.84 207.65 94.0783 207.594 94.2639 207.521C94.4518 207.448 94.619 207.351 94.7657 207.232C94.91 207.113 95.0361 206.973 95.1415 206.81C95.2446 206.647 95.3225 206.473 95.3752 206.291C95.4279 206.11 95.4554 205.917 95.4554 205.715C95.4554 205.52 95.4279 205.332 95.3752 205.153C95.3225 204.977 95.2423 204.807 95.1369 204.646C95.0292 204.486 94.9077 204.348 94.768 204.233C94.6282 204.118 94.4747 204.027 94.3005 203.958C94.1287 203.889 93.8996 203.836 93.6131 203.802C93.3267 203.767 92.983 203.751 92.582 203.751H91.5532H90.5221Z" fill="white"/>
<path d="M100.693 212.555C100.828 212.555 100.954 212.58 101.069 212.626C101.183 212.674 101.289 212.747 101.385 212.841C101.479 212.938 101.55 213.043 101.598 213.16C101.646 213.277 101.669 213.404 101.669 213.541C101.669 213.677 101.646 213.803 101.598 213.92C101.55 214.035 101.479 214.14 101.385 214.236C101.289 214.335 101.183 214.406 101.069 214.454C100.954 214.503 100.828 214.528 100.693 214.528C100.558 214.528 100.434 214.503 100.317 214.454C100.203 214.406 100.097 214.335 100.003 214.236C99.907 214.14 99.8359 214.035 99.7878 213.92C99.7397 213.803 99.7168 213.677 99.7168 213.541C99.7168 213.404 99.7397 213.277 99.7878 213.16C99.8359 213.043 99.907 212.938 100.003 212.841C100.097 212.747 100.203 212.674 100.317 212.626C100.434 212.58 100.558 212.555 100.693 212.555Z" fill="white"/>
<path d="M110.612 202.606H113.538H116.467V203.18V203.751H114.123H111.779V205.585V207.418H114.123H116.467V207.991V208.563H114.123H111.779V211.435V214.306H111.197H110.612V208.455V202.606Z" fill="white"/>
<path d="M125.87 202.312C126.755 202.312 127.566 202.462 128.306 202.755C129.048 203.051 129.715 203.494 130.313 204.086C130.907 204.678 131.356 205.336 131.654 206.064C131.951 206.793 132.1 207.587 132.1 208.452C132.1 209.308 131.951 210.1 131.654 210.827C131.358 211.554 130.911 212.215 130.315 212.812C129.722 213.408 129.06 213.856 128.336 214.154C127.612 214.452 126.819 214.601 125.964 214.601C125.098 214.601 124.301 214.452 123.567 214.156C122.837 213.858 122.174 213.413 121.576 212.818C120.981 212.224 120.534 211.568 120.236 210.85C119.938 210.132 119.789 209.352 119.789 208.507C119.789 207.945 119.858 207.404 119.993 206.883C120.128 206.362 120.332 205.862 120.605 205.382C120.875 204.903 121.196 204.476 121.567 204.1C121.936 203.724 122.355 203.4 122.825 203.127C123.295 202.856 123.783 202.652 124.289 202.517C124.796 202.381 125.323 202.312 125.87 202.312ZM125.921 203.451C125.488 203.451 125.068 203.508 124.658 203.62C124.248 203.733 123.849 203.9 123.462 204.125C123.075 204.352 122.731 204.616 122.429 204.921C122.126 205.224 121.865 205.568 121.65 205.949C121.432 206.332 121.267 206.736 121.159 207.161C121.049 207.587 120.997 208.035 120.997 208.505C120.997 209.2 121.116 209.84 121.356 210.428C121.597 211.015 121.959 211.547 122.44 212.027C122.921 212.506 123.451 212.864 124.033 213.103C124.612 213.344 125.242 213.463 125.921 213.463C126.374 213.463 126.81 213.408 127.231 213.298C127.651 213.188 128.052 213.023 128.439 212.802C128.824 212.582 129.167 212.323 129.47 212.02C129.77 211.719 130.029 211.378 130.244 210.997C130.462 210.614 130.622 210.21 130.73 209.785C130.84 209.361 130.893 208.916 130.893 208.45C130.893 207.984 130.84 207.544 130.73 207.122C130.622 206.704 130.462 206.305 130.244 205.928C130.029 205.554 129.768 205.215 129.463 204.917C129.158 204.616 128.812 204.352 128.418 204.125C128.026 203.9 127.621 203.733 127.206 203.62C126.789 203.508 126.361 203.451 125.921 203.451Z" fill="white"/>
<path d="M136.539 202.606H137.703H138.867C139.516 202.606 140.061 202.62 140.498 202.645C140.938 202.673 141.273 202.712 141.504 202.765C141.85 202.845 142.164 202.969 142.446 203.141C142.73 203.311 142.978 203.526 143.195 203.788C143.413 204.05 143.576 204.341 143.686 204.665C143.793 204.986 143.846 205.337 143.846 205.72C143.846 206.039 143.809 206.337 143.736 206.617C143.661 206.897 143.548 207.159 143.399 207.399C143.248 207.643 143.067 207.854 142.854 208.035C142.641 208.219 142.393 208.37 142.116 208.494C141.839 208.618 141.507 208.712 141.122 208.774C140.739 208.838 140.301 208.87 139.813 208.872L141.915 211.589L144.016 214.306H143.292H142.57L140.469 211.589L138.368 208.872H138.038H137.708V211.589V214.306H137.123H136.539V208.455V202.606ZM137.708 203.751V205.741V207.728L138.714 207.737L139.719 207.744C140.109 207.744 140.45 207.725 140.737 207.689C141.026 207.65 141.264 207.594 141.449 207.521C141.637 207.448 141.802 207.351 141.951 207.232C142.096 207.113 142.222 206.973 142.325 206.81C142.43 206.647 142.508 206.473 142.561 206.291C142.613 206.11 142.641 205.917 142.641 205.715C142.641 205.52 142.613 205.332 142.561 205.153C142.508 204.977 142.428 204.807 142.322 204.646C142.217 204.486 142.093 204.348 141.954 204.233C141.814 204.118 141.658 204.027 141.486 203.958C141.314 203.889 141.085 203.836 140.799 203.802C140.512 203.767 140.169 203.751 139.768 203.751H138.739H137.708Z" fill="white"/>
<path d="M147.984 202.606H148.582H149.183L150.377 206.821L151.57 211.036L153.245 206.821L154.92 202.606H155.042H155.163L156.818 206.821L158.472 211.036L159.686 206.821L160.901 202.606H161.496H162.09L160.413 208.455L158.733 214.306H158.625H158.515L156.783 209.88L155.049 205.454L153.282 209.88L151.515 214.306H151.405H151.298L149.641 208.455L147.984 202.606Z" fill="white"/>
<path d="M169.502 202.606L172.226 208.455L174.95 214.306H174.32H173.69L172.771 212.381L171.852 210.456H169.337H166.818L165.909 212.381L164.999 214.306H164.348H163.695L166.456 208.455L169.217 202.606H169.36H169.502ZM169.355 205.091L168.354 207.209L167.352 209.327H169.35H171.348L170.352 207.209L169.355 205.091Z" fill="white"/>
<path d="M178.777 202.606H179.941H181.105C181.754 202.606 182.299 202.62 182.737 202.645C183.177 202.673 183.511 202.712 183.743 202.765C184.089 202.845 184.403 202.969 184.684 203.141C184.969 203.311 185.216 203.526 185.434 203.788C185.651 204.05 185.814 204.341 185.924 204.665C186.032 204.986 186.084 205.337 186.084 205.72C186.084 206.039 186.048 206.337 185.974 206.617C185.899 206.897 185.787 207.159 185.635 207.399C185.486 207.643 185.305 207.854 185.092 208.035C184.879 208.219 184.632 208.37 184.354 208.494C184.075 208.618 183.745 208.712 183.36 208.774C182.977 208.838 182.54 208.87 182.052 208.872L184.153 211.589L186.252 214.306H185.53H184.808L182.707 211.589L180.606 208.872H180.276H179.946V211.589V214.306H179.362H178.777V208.455V202.606ZM179.946 203.751V205.741V207.728L180.952 207.737L181.958 207.744C182.347 207.744 182.686 207.725 182.975 207.689C183.264 207.65 183.502 207.594 183.688 207.521C183.876 207.448 184.041 207.351 184.19 207.232C184.334 207.113 184.46 206.973 184.563 206.81C184.668 206.647 184.746 206.473 184.799 206.291C184.852 206.11 184.879 205.917 184.879 205.715C184.879 205.52 184.852 205.332 184.799 205.153C184.746 204.977 184.666 204.807 184.561 204.646C184.453 204.486 184.332 204.348 184.192 204.233C184.052 204.118 183.896 204.027 183.724 203.958C183.553 203.889 183.323 203.836 183.037 203.802C182.751 203.767 182.407 203.751 182.006 203.751H180.977H179.946Z" fill="white"/>
<path d="M190.555 214.306V208.455V202.606H191.767H192.979C193.852 202.606 194.606 202.641 195.24 202.71C195.873 202.781 196.388 202.886 196.783 203.026C197.348 203.226 197.855 203.497 198.297 203.841C198.739 204.187 199.12 204.605 199.44 205.096C199.759 205.585 199.997 206.124 200.158 206.709C200.318 207.292 200.398 207.925 200.398 208.602C200.398 209.189 200.334 209.74 200.208 210.256C200.082 210.77 199.892 211.252 199.64 211.697C199.385 212.142 199.094 212.527 198.767 212.858C198.439 213.186 198.073 213.457 197.669 213.668C197.266 213.881 196.78 214.039 196.214 214.145C195.648 214.253 195.002 214.306 194.271 214.306H192.413H190.555ZM191.675 213.2H192.351H193.027C193.834 213.2 194.516 213.174 195.078 213.124C195.637 213.073 196.072 212.998 196.386 212.897C196.824 212.755 197.218 212.553 197.564 212.296C197.908 212.039 198.208 211.724 198.46 211.353C198.712 210.979 198.9 210.566 199.026 210.111C199.152 209.657 199.214 209.159 199.214 208.622C199.214 208.058 199.145 207.535 199.01 207.053C198.872 206.571 198.668 206.128 198.396 205.729C198.123 205.33 197.795 204.993 197.417 204.717C197.037 204.444 196.604 204.233 196.116 204.084C195.749 203.974 195.266 203.889 194.663 203.834C194.06 203.779 193.341 203.751 192.502 203.751H192.088H191.675V208.476V213.2Z" fill="white"/>
<path d="M203.132 212.555C203.268 212.555 203.391 212.58 203.508 212.626C203.623 212.674 203.728 212.747 203.822 212.841C203.918 212.938 203.989 213.043 204.037 213.16C204.086 213.277 204.108 213.404 204.108 213.541C204.108 213.677 204.086 213.803 204.037 213.92C203.989 214.035 203.918 214.14 203.822 214.236C203.728 214.335 203.623 214.406 203.508 214.454C203.391 214.503 203.268 214.528 203.132 214.528C202.997 214.528 202.873 214.503 202.757 214.454C202.642 214.406 202.537 214.335 202.44 214.236C202.344 214.14 202.275 214.035 202.227 213.92C202.179 213.803 202.156 213.677 202.156 213.541C202.156 213.404 202.179 213.277 202.227 213.16C202.275 213.043 202.344 212.938 202.44 212.841C202.537 212.747 202.642 212.674 202.757 212.626C202.873 212.58 202.997 212.555 203.132 212.555Z" fill="white"/>
</svg>
