<svg width="76" height="76" viewBox="0 0 76 76" fill="none" xmlns="http://www.w3.org/2000/svg">
<path d="M31.6663 52.2502L50.6663 38.0002L31.6663 23.7502V52.2502ZM37.9997 6.3335C20.5197 6.3335 6.33301 20.5202 6.33301 38.0002C6.33301 55.4802 20.5197 69.6668 37.9997 69.6668C55.4797 69.6668 69.6663 55.4802 69.6663 38.0002C69.6663 20.5202 55.4797 6.3335 37.9997 6.3335ZM37.9997 63.3335C24.0347 63.3335 12.6663 51.9652 12.6663 38.0002C12.6663 24.0352 24.0347 12.6668 37.9997 12.6668C51.9647 12.6668 63.333 24.0352 63.333 38.0002C63.333 51.9652 51.9647 63.3335 37.9997 63.3335Z" fill="white" fill-opacity="0.5"/>
</svg>
