<svg width="21" height="21" viewBox="0 0 21 21" fill="none" xmlns="http://www.w3.org/2000/svg">
<path d="M3.79723 2.56396L2.56348 3.79772L6.37848 7.61272L6.12473 7.87522H2.62473V13.1252H6.12473L10.4997 17.5002V11.734L14.1572 15.3915C13.5885 15.8202 12.9497 16.1615 12.2497 16.3627V18.1652C13.4222 17.9027 14.4985 17.3602 15.4085 16.634L17.2022 18.4277L18.436 17.194L3.79723 2.56396ZM8.74973 13.274L6.85098 11.3752H4.37473V9.62522H6.85098L7.62098 8.85522L8.74973 9.98397V13.274ZM16.6247 10.5002C16.6247 11.2177 16.4935 11.909 16.266 12.5477L17.6047 13.8865C18.0947 12.8627 18.3747 11.7165 18.3747 10.5002C18.3747 6.75522 15.7585 3.62271 12.2497 2.82646V4.62897C14.7785 5.38147 16.6247 7.72647 16.6247 10.5002ZM10.4997 3.50021L8.85473 5.14522L10.4997 6.79022V3.50021ZM14.4372 10.5002C14.4372 8.95147 13.5447 7.62147 12.2497 6.97397V8.54022L14.4197 10.7102C14.4285 10.6402 14.4372 10.5702 14.4372 10.5002Z" fill="white"/>
</svg>
