<?xml version="1.0" encoding="utf-8"?>
<!-- Generator: Adobe Illustrator 25.1.0, SVG Export Plug-In . SVG Version: 6.00 Build 0)  -->
<svg version="1.1" id="Capa_1" xmlns="http://www.w3.org/2000/svg" xmlns:xlink="http://www.w3.org/1999/xlink" x="0px" y="0px"
	 viewBox="0 0 512 512" style="enable-background:new 0 0 512 512;" xml:space="preserve">
<style type="text/css">
	.st0{fill:#FFFFFF;}
</style>
<g>
	<path class="st0" d="M202.5,210.9c6.6,0,13.2-2.5,18.2-7.5l15-15c23.5-23.5-12.9-59.9-36.4-36.4l-15,15
		C168.4,182.9,180,210.9,202.5,210.9z M194.9,177.6l15-15c9.8-9.8,25,5.4,15.2,15.2l-15,15C200.3,202.6,185.1,187.4,194.9,177.6
		L194.9,177.6z"/>
	<path class="st0" d="M501,325.7c0-36-22.2-69.2-55.4-83s-72.5-5.9-97.9,19.5L153.3,456.6c-26.8,26.8-71,29-100.3,4.9
		c-33.7-27.7-36.3-79.9-5.4-110.7l9.2-9.2c5.5,5.5,10.7,11.5,17.7,15c12.6,6.2,28.3,4.4,39-4.7l191.7-162c16.7-4.7,30-14.3,42-26.4
		c6.3,3.5,13.7-3.8,10.2-10.2c9.7-9.7,18.1-19.8,23.5-32.6c3.7-8.9-10.1-14.7-13.8-5.8c-4.6,10.9-11.8,19.3-20,27.5L245.3,40.6
		C260.6,25.3,278.4,15,300.7,15c19.2,0,37.3,7.5,50.9,21.1s21.1,31.7,21.1,50.9c0,9.7,15,9.7,15,0c0-23.2-9.1-45.1-25.5-61.5
		C345.8,9,324,0,300.7,0c-26.4,0-48.1,12-66.3,30.2c-6.4-3.6-13.7,3.8-10.2,10.2c-12.1,12.1-21.7,25.4-26.4,42l-162,191.7
		c-8.6,10.1-10.7,24.7-5.7,36.9c3.3,8.1,9.9,13.8,16,19.9l-9.2,9.2c-34.6,34.6-34.6,92.4,0,127s92.4,34.6,127,0l194.4-194.4
		c30.8-30.8,83-28.2,110.7,5.4c24.1,29.3,21.9,73.5-4.9,100.3L433,409.6c-7.8-8.3-21.3-8.8-29.5-0.6l-43.1,43.1
		c-8.2,8.2-7.7,21.6,0.6,29.5l-17.7,17.7c-6.8,6.8,3.8,17.4,10.6,10.6l17.7-17.7c7.8,8.3,21.3,8.8,29.5,0.6l43.1-43.1
		c8.2-8.2,7.7-21.6-0.6-29.5l31.1-31.1C491.7,372.2,501,349.7,501,325.7L501,325.7z M126,321.7l-60-60l55.5-65.6l13.4,13.4
		c6.8,6.8,17.4-3.8,10.6-10.6l-14.3-14.3l73.9-87.5l85.4,85.4L203,256.4l-35.1-35.1c-6.8-6.8-17.4,3.8-10.6,10.6l34.2,34.2
		L126,321.7z M230.7,55.2l4-4L336.5,153c-9.5,9.5-19.7,17.4-32.7,21.5l-90.7-90.7C216.6,73.1,222.6,63.3,230.7,55.2z M47.3,283.9
		l9-10.7l58.2,58.2l-10.7,9c-8.2,7-20.6,6.4-28.3-1.2l-27.1-27.1C40.8,304.4,40.2,292.3,47.3,283.9L47.3,283.9z M433.7,439.1
		l-43.1,43.1c-2.1,2.1-5.5,2.1-7.6,0l-11.9-11.9c-2.1-2.1-2.1-5.5,0-7.6l43.1-43.1c2.1-2.1,5.5-2.1,7.6,0l11.9,11.9
		C435.7,433.6,435.7,437,433.7,439.1z"/>
</g>
</svg>
