<?xml version="1.0" encoding="utf-8"?>
<!-- Generator: Adobe Illustrator 25.1.0, SVG Export Plug-In . SVG Version: 6.00 Build 0)  -->
<svg version="1.1" id="Capa_1" xmlns="http://www.w3.org/2000/svg" xmlns:xlink="http://www.w3.org/1999/xlink" x="0px" y="0px"
	 viewBox="0 0 512 512" style="enable-background:new 0 0 512 512;" xml:space="preserve">
<style type="text/css">
	.st0{fill:#FFFFFF;}
</style>
<g>
	<path class="st0" d="M40.8,328.7c14.3-14.3,33.1-22.5,54.3-23.8c15.9-1,29.3-11.9,33.3-27.3c3.1-12.1,9.1-22.6,17.8-31.3
		c21.3-21.3,53.4-24.2,83.7-8.2l-55.5,53.6c-6.8,1.6-13.3,5.1-18.6,10.4c-15.4,15.4-15.4,40.4,0,55.7c15.2,15.2,40.6,15.2,55.7,0
		c5.2-5.2,8.6-11.5,10.3-18.2l15.2-15.8c6.7-7-4.1-17.4-10.8-10.4l-4.8,5c-3.7-12.3-13.7-22.3-26-26.1l142.5-137.2
		c7-6.7-3.4-17.6-10.4-10.8L241,227.2c-33.6-19.6-76.9-20.2-105.6,8.5c-10.4,10.4-17.9,23.6-21.7,38.1c-2.3,9-10.2,15.5-19.6,16
		c-24.9,1.5-47,11.3-64,28.2C4,344.2-4.8,382.8,6.5,421.4c2.7,9.2,17.2,5.1,14.4-4.2C11.1,384,18.6,350.9,40.8,328.7L40.8,328.7z
		 M200.7,347.2c-9.5,9.5-25,9.5-34.5,0s-9.5-25,0-34.5c9.3-9.3,25.1-9.3,34.5,0C210.2,322.2,210.2,337.7,200.7,347.2z"/>
	<path class="st0" d="M492.1,66.9L446,20.8c-3.7-3-7.3-2.9-10.9,0.2l-28.9,31.6c-0.5,0.5-0.8,1.1-1.1,1.7l-15.2,29.8L352.5,120
		c-7,6.7,3.4,17.6,10.4,10.8l32.9-31.6l17.8,17.8L249.5,288.9c-6.7,7,4.1,17.4,10.8,10.4l15.2-15.8c16.5,30.5,13.7,62.9-7.8,84.5
		c-8.6,8.6-19.2,14.6-31.3,17.8c-15.3,4-26.3,17.3-27.3,33.3c-1.3,21.2-9.5,40-23.8,54.3c-38.1,38.1-100.4,26.9-135.9-8.6
		c-5.2-5.2-9.9-10.8-13.9-16.8c-5.5-8-17.9,0.4-12.4,8.4c4.6,6.8,9.9,13.1,15.7,19C80.2,516.8,152,528,196,484
		c16.9-16.9,26.7-39.1,28.2-64c0.6-9.4,7-17.3,16-19.6c14.5-3.8,27.7-11.3,38.1-21.7c29-29,28-72.7,8-106.4L428.7,123l29.8-15.2
		c0.6-0.3,1.2-0.7,1.7-1.1l31.6-28.9C495,74.2,495.1,70.6,492.1,66.9L492.1,66.9z M450.8,94.9l-25.2,12.9l-20.4-20.4L418,62.1
		L440.9,37l35,35L450.8,94.9z"/>
	<path class="st0" d="M113.4,434.6c3.5,2.9,7.1,2.9,10.6,0l3.4-3.4l6,6c3.5,2.9,7.1,2.9,10.6,0l18.2-18.2c2.9-2.9,2.9-7.7,0-10.6
		l-55.7-55.7c-2.9-2.9-7.7-2.9-10.6,0l-18.2,18.2c-2.9,3.5-2.9,7.1,0,10.6l6.1,6.1l-3.4,3.4c-6.9,6.9,3.8,17.5,10.6,10.6l3.4-3.4
		l5.5,5.5l-3.4,3.4c-6.9,6.9,3.8,17.5,10.6,10.6l3.4-3.4l6.2,6.2l-3.4,3.4C110.5,426.9,110.5,431.6,113.4,434.6L113.4,434.6z
		 M101.2,368.6l45.1,45.1l-7.6,7.6l-45.1-45.1L101.2,368.6z"/>
	<circle class="st0" cx="450.4" cy="134.9" r="8.9"/>
	<path class="st0" d="M469.8,110.2c-3.5,3.5-3.5,9.2,0,12.6c3.5,3.5,9.2,3.5,12.6,0c3.5-3.5,3.5-9.2,0-12.6
		C478.9,106.8,473.3,106.8,469.8,110.2z"/>
	<path class="st0" d="M507.7,87.4c-3.5-3.5-9.2-3.5-12.6,0c-3.5,3.5-3.5,9.2,0,12.6c3.5,3.5,9.2,3.5,12.6,0
		C511.2,96.6,511.2,90.9,507.7,87.4z"/>
	<path class="st0" d="M381.7,66.3c3.5-3.5,3.5-9.2,0-12.6c-3.5-3.5-9.2-3.5-12.6,0s-3.5,9.2,0,12.6
		C372.6,69.8,378.3,69.8,381.7,66.3z"/>
	<path class="st0" d="M400.1,40.6c3.5-3.5,3.5-9.2,0-12.6c-3.5-3.5-9.2-3.5-12.6,0c-3.5,3.5-3.5,9.2,0,12.6
		C391,44.1,396.6,44.1,400.1,40.6z"/>
	<circle class="st0" cx="416.6" cy="8.9" r="8.9"/>
</g>
</svg>
