<?xml version="1.0" encoding="utf-8"?>
<!-- Generator: Adobe Illustrator 25.1.0, SVG Export Plug-In . SVG Version: 6.00 Build 0)  -->
<svg version="1.1" id="Capa_1" xmlns="http://www.w3.org/2000/svg" xmlns:xlink="http://www.w3.org/1999/xlink" x="0px" y="0px"
	 viewBox="0 0 512 512" style="enable-background:new 0 0 512 512;" xml:space="preserve">
<style type="text/css">
	.st0{fill:#FFFFFF;}
</style>
<g>
	<path class="st0" d="M177.7,289.2c-4.1,0-7.5,3.4-7.5,7.5v45.1c-13.9-4.6-39.5-11-65-6.1c-37.8,7.2-61.3,30.9-61.3,62
		c0,14.2,6.6,27.8,18.2,37.4c10.9,9,25,13.8,40,13.8c4.5,0,9.2-0.4,13.8-1.3c20-3.8,37-13.9,49.1-29.3c13.3-16.9,20.1-39,20.1-65.7
		v-56C185.2,292.5,181.9,289.2,177.7,289.2L177.7,289.2z M153.4,409c-9.8,12.5-23.7,20.7-40.2,23.8c-15.6,3-30.8-0.4-41.5-9.3
		c-8.3-6.8-12.8-16-12.8-25.9c0-23.8,18.4-41.4,49.1-47.3c5.4-1,10.9-1.5,16.2-1.5c19.6,0,37.7,5.7,45.9,8.7
		C169.4,378.6,163.7,395.8,153.4,409z"/>
	<path class="st0" d="M507.4,232.7c3.8-1.7,5.5-6.1,3.8-9.9c-1.7-3.8-6.1-5.5-9.9-3.8c-32.8,14.6-63.6,21.5-95.1,21.2v-15
		c33.5,0.3,66.3-7,101.1-22.5c3.8-1.7,5.5-6.1,3.8-9.9c-1.7-3.8-6.1-5.5-9.9-3.8c-32.8,14.6-63.6,21.5-95.1,21.2V70.6
		c0-3.3-2.2-6.3-5.4-7.2L268.9,25.8c-4-1.1-8.1,1.2-9.3,5.1c-1.1,4,1.2,8.1,5.1,9.3l126.5,36.1v47.6L185.2,65V17.4l51.7,14.8
		c4,1.1,8.1-1.2,9.3-5.1s-1.2-8.1-5.1-9.3L179.8,0.3c-2.3-0.6-4.7-0.2-6.6,1.2c-1.9,1.4-3,3.6-3,6v128.4c-12.6-3.3-25-5.9-37.5-7.4
		c-43.3-5.5-84,1.1-128.1,20.6c-3.8,1.7-5.5,6.1-3.8,9.9c1.7,3.8,6.1,5.5,9.9,3.8c41.5-18.4,79.7-24.6,120.2-19.5
		c38.4,4.9,76.6,19.3,122.1,39.5c46.7,20.7,86.1,35.5,126.3,40.6c4,0.5,8,0.9,12,1.2v14.9c-3.4-0.3-6.7-0.6-10.1-1
		c-38.4-4.9-76.6-19.3-122.1-39.5c-46.7-20.7-86.1-35.5-126.3-40.6c-43.3-5.5-84,1.1-128.1,20.6c-3.8,1.7-5.5,6.1-3.8,9.9
		c1.7,3.8,6.1,5.5,9.9,3.8c41.5-18.4,79.7-24.6,120.2-19.5c38.4,4.9,76.6,19.3,122.1,39.5c46.7,20.7,86.1,35.5,126.3,40.6
		c4,0.5,8,0.9,12,1.2v14.9c-3.4-0.3-6.7-0.6-10.1-1c-38.4-4.9-76.6-19.3-122.1-39.5c-46.7-20.7-86.1-35.5-126.3-40.6
		c-43.3-5.5-84,1.1-128.1,20.6C1,210.6-0.7,215,1,218.8c1.7,3.8,6.1,5.5,9.9,3.8c41.5-18.4,79.7-24.6,120.2-19.5
		c38.4,4.9,76.6,19.3,122.1,39.5c46.7,20.7,86.1,35.5,126.3,40.6c4,0.5,8,0.9,12,1.2v44.9c-3.4-0.3-6.7-0.6-10.1-1
		c-38.4-4.9-76.6-19.3-122.1-39.5c-46.7-20.7-86.1-35.5-126.3-40.6c-43.3-5.5-84,1.1-128.1,20.6c-3.8,1.7-5.5,6.1-3.8,9.9
		s6.1,5.5,9.9,3.8c41.5-18.4,79.7-24.6,120.2-19.5c38.4,4.9,76.6,19.3,122.1,39.5c46.7,20.7,86.1,35.5,126.3,40.6
		c4,0.5,8,0.9,12,1.2v60.4c-13.9-4.6-39.5-11-65-6.1c-4.1,0.8-6.7,4.7-6,8.8c0.8,4.1,4.7,6.7,8.8,6c25.2-4.8,51.7,3.5,62.1,7.3
		c-0.8,20.9-6.4,38.2-16.8,51.3c-9.8,12.5-23.7,20.7-40.2,23.8c-15.6,3-30.8-0.4-41.5-9.3c-8.3-6.8-12.8-16-12.8-25.9
		c0-17.4,9.8-31.7,27.7-40.4c3.7-1.8,5.3-6.3,3.5-10s-6.3-5.3-10-3.5c-23,11.1-36.1,30.8-36.1,53.9c0,14.2,6.6,27.8,18.2,37.4
		c10.9,9,25,13.8,40,13.8c4.5,0,9.2-0.4,13.8-1.3c20-3.8,37-13.9,49.1-29.3c13.3-16.9,20.1-39,20.1-65.7v-70.6
		c33.5,0.3,66.3-7,101.1-22.5c3.8-1.7,5.5-6.1,3.8-9.9c-1.7-3.8-6.1-5.5-9.9-3.8c-32.8,14.6-63.6,21.5-95.1,21.2v-15
		c33.3,0.3,66.4-7.1,101.1-22.5c3.8-1.7,5.5-6.1,3.8-9.9s-6.1-5.5-9.9-3.8c-32.8,14.5-63.9,21.5-95.1,21.2v-15
		c33.5,0.3,66.3-7,101.1-22.5c3.8-1.7,5.5-6.1,3.8-9.9c-1.7-3.8-6.1-5.5-9.9-3.8c-32.8,14.6-63.6,21.5-95.1,21.2v-15
		C439.8,255.5,472.5,248.2,507.4,232.7L507.4,232.7z M391.2,209.5c-3.4-0.3-6.7-0.6-10.1-1c-38.4-4.9-76.6-19.3-122.1-39.5
		c-26.5-11.7-50.6-21.6-73.8-28.8V80.6l206,58.9V209.5z"/>
	<path class="st0" d="M10.7,252.7c41.5-18.4,79.7-24.6,120.2-19.5c38.4,4.9,76.6,19.3,122.1,39.5c35.9,15.9,74.3,31.6,112.5,38.5
		c0.5,0.1,0.9,0.1,1.3,0.1c3.6,0,6.7-2.5,7.4-6.2c0.7-4.1-2-8-6-8.7c-36.7-6.7-74.1-21.9-109.2-37.5
		c-46.7-20.7-86.1-35.5-126.3-40.6c-43.3-5.5-84,1.1-128.1,20.6c-3.8,1.7-5.5,6.1-3.8,9.9C2.5,252.7,6.9,254.4,10.7,252.7
		L10.7,252.7z"/>
</g>
</svg>
