<?xml version="1.0" encoding="utf-8"?>
<!-- Generator: Adobe Illustrator 25.1.0, SVG Export Plug-In . SVG Version: 6.00 Build 0)  -->
<svg version="1.1" id="Capa_1" xmlns="http://www.w3.org/2000/svg" xmlns:xlink="http://www.w3.org/1999/xlink" x="0px" y="0px"
	 viewBox="0 0 512 512" style="enable-background:new 0 0 512 512;" xml:space="preserve">
<style type="text/css">
	.st0{fill:#FFFFFF;}
</style>
<g>
	<path class="st0" d="M31.1,373.2c1.3,2.3,3.8,3.7,6.5,3.7c1.2,0,28.7-0.3,43.5-24.9c12.7-21.1,1.4-39.3-6.4-46
		c-3.5-3.1-9.2-2.1-11.4,2L31,365.8C29.7,368.1,29.7,370.9,31.1,373.2z M70.5,325.8c5.1,13.5-6.5,27.2-18.2,32.6
		C58.4,347.5,64.5,336.6,70.5,325.8z"/>
	<path class="st0" d="M161.6,432.5c-24.6,14.8-24.9,42.4-24.9,43.5c0,5.6,6.2,9.3,11.2,6.6l57.8-32.2c4.1-2.3,5.1-7.9,2-11.4
		C200.9,431.2,182.7,419.9,161.6,432.5L161.6,432.5z M155.3,461.3c5.3-11.7,19-23.2,32.6-18.2C177,449.1,166.1,455.2,155.3,461.3z"
		/>
	<path class="st0" d="M509.8,72.4l-8.7-8.7c1.2-12.9-1-26.7-1.7-39.6c-0.4-6.7-5.6-11.9-12.2-12.2c-12.9-0.7-26.7-2.9-39.6-1.7
		l-7.9-7.9C432.9-4.4,422,5.9,429,12.9l2.5,2.5c-2.7,1.5-5.1,3.4-7.4,5.5l-1.5-1.5C416,12.8,405.1,23.1,412,30l3,3
		c-1,2-1.8,4.1-2.5,6.3l-5-5c-6.6-6.6-17.5,3.7-10.6,10.6l10.9,10.9c-1.4,4.3-2.7,8-3.4,10.1L275.5,181c-25.5-5.9-52.8,4-68.8,24.8
		c-8.2,10.7-20.9,16.7-33.8,16c-44.9-2.3-90.4,16.2-125,50.8c-2.3,2.3-4.5,4.6-6.6,7c-6.5,7.2,4.6,17.3,11.1,10
		c1.9-2.2,4-4.3,6.1-6.4c31.6-31.6,73.1-48.6,113.7-46.5c17.9,0.9,35.3-7.2,46.5-21.9c9.9-12.9,25.7-20.7,42-20.6l-91.3,88.1
		c-6.9,6.9,3.8,17.4,10.6,10.6l56.7-56.7l13.8,13.8l-76.6,76.6l-59.5-59.5c-2.9-2.9-7.7-2.9-10.6,0l-15.5,15.5
		c-2.9,2.9-2.9,7.7,0,10.6l37.3,37.3L64,392.1c-1.4,0.6-2.6,1.7-3.4,3.1c-6.8,12.1-22.4,29.6-32.4,40.1
		c-18.9-35.8-17.6-79.1,4.1-117.8c4.7-8.4-8.4-15.8-13.1-7.3C6.3,333.1-0.3,358.2,0,383c0.2,22.8,6.3,44.9,17.6,64.3
		c-1,2.6-0.4,5.7,1.7,7.8L57,492.8c2,2,5.2,2.7,7.8,1.7c58,33.7,129.2,15.3,174.7-30.2c35.9-35.9,54.8-84.9,50.4-130.9
		c-1.8-18.8,8.9-28.3,20.5-41c12.9-14.2,19.1-33,17.2-52.2l73.9-83.6c6.4-7.2-4.8-17.2-11.2-9.9L286.2,264.5L247.6,226L410.5,80.6
		l20.4,20.4l-17,19.2c-6.4,7.2,4.8,17.2,11.2,9.9l20.5-23.1c2-0.8,5.7-2.1,9.9-3.5l11.6,11.6c6.8,6.8,17.5-3.7,10.6-10.6l-5.8-5.8
		c2.1-0.6,4.2-1.4,6.3-2.5l3.9,3.9c6.8,6.8,17.5-3.7,10.6-10.6l-2.4-2.4c2.1-2.2,3.9-4.7,5.5-7.4l3.4,3.4
		C505.9,89.8,516.7,79.4,509.8,72.4L509.8,72.4z M261.1,260.7l14.8,14.8l-69.8,69.8c-7.4-3.1-14.4-6.6-20-9.7L261.1,260.7z
		 M277.1,313.6c-3.6,12.3-5.8,25.5-16.1,34.4c-11,9.4-26.4,6.8-39.3,3c19.2-19.2,38.4-38.4,57.7-57.7
		C279,300.1,278.3,306.9,277.1,313.6z M109.1,283l120.1,120.1l-4.9,4.9L104.2,287.9L109.1,283z M119.5,427.6l-1.7-23.7l40.6-40.6
		l12.7,12.7L119.5,427.6z M147.8,352.7l-41.4,41.4l-21.8-1.5l51.5-51.5L147.8,352.7z M71.1,406.7l32.1,2.3l2.3,32.1
		c-14.9,9.6-33.9,27.1-43,35.9l-27.2-27.2C44,440.6,61.5,421.6,71.1,406.7L71.1,406.7z M229,453.7c-44.1,44.1-104.1,55.7-152.2,30.3
		c10.6-9.9,28-25.6,40.1-32.4c1.4-0.8,2.4-2,3.1-3.3l61.7-61.7l37.3,37.3c2.9,2.9,7.7,2.9,10.6,0l15.5-15.5c2.9-2.9,2.9-7.7,0-10.6
		L210.4,363c22,7.7,48,11.2,65-8.3C273.2,390.2,256.6,426.1,229,453.7L229,453.7z M299.4,282.4c-1.5,1.7-3.2,3.3-4.9,4.7
		c0-3.3-0.1-6.3-0.2-9l17.6-19.9C309.9,267.1,305.6,275.5,299.4,282.4L299.4,282.4z M484.5,26.7c0.6,12.1,3.5,26.2,1.2,38.2
		c-4.4,19.9-27,21.3-42.6,27l-23.6-23.6c2.7-7.8,5.2-15.6,7.1-23.6c2.9-11.7,14.2-20.3,25.6-19.6L484.5,26.7z"/>
</g>
</svg>
