<?xml version="1.0" encoding="utf-8"?>
<!-- Generator: Adobe Illustrator 25.1.0, SVG Export Plug-In . SVG Version: 6.00 Build 0)  -->
<svg version="1.1" id="Capa_1" xmlns="http://www.w3.org/2000/svg" xmlns:xlink="http://www.w3.org/1999/xlink" x="0px" y="0px"
	 viewBox="0 0 512 512" style="enable-background:new 0 0 512 512;" xml:space="preserve">
<style type="text/css">
	.st0{fill:#FFFFFF;}
</style>
<g>
	<path class="st0" d="M504.5,133.5h-104c-3.7-28.3-28-50.3-57.3-50.3H129c-9.7,0-17.6-7.9-17.6-17.6S119.3,48,129,48h158.5
		c-0.4,5.2,0.7,12.2,7.5,12.2h74.9c6.6,0,8-7,7.5-12.2h12.1c9.4,0,9.8-15,0-15h-12.1c0.5-5.3-0.4-12.8-7.5-12.8H295
		c-6.9,0-8.1,7.5-7.5,12.8H129c-18,0-32.6,14.6-32.6,32.6S111,98.2,129,98.2h214.2c21,0,38.6,15.3,42.1,35.3H7.5
		c-4.1,0-7.5,3.4-7.5,7.5v296.9c0,20.6,15.5,37.6,36.1,39.4l105.5,9.4c38,3.4,76.2,5.1,114.4,5.1s76.4-1.7,114.4-5.1
		c9.3-0.8,8.4-15.8-1.3-14.9c-75,6.7-151.1,6.7-226.1,0l-105.5-9.4C24.6,461.3,15,450.8,15,437.9V148.5h482v289.4
		c0,12.8-9.6,23.4-22.4,24.5l-70.9,6.3c-9.3,0.8-8.4,15.8,1.3,14.9l70.9-6.3c20.6-1.8,36.1-18.8,36.1-39.4V141
		C512,136.9,508.6,133.5,504.5,133.5L504.5,133.5z M302.5,35.1h59.9v10h-59.9V35.1z"/>
	<path class="st0" d="M195.3,251.6c0-4.1-3.4-7.5-7.5-7.5h-78.2c-4.1,0-7.5,3.4-7.5,7.5s3.4,7.5,7.5,7.5h70.7v25H61.4v-25h14.3
		c4.1,0,7.5-3.4,7.5-7.5s-3.4-7.5-7.5-7.5H53.9c-4.1,0-7.5,3.4-7.5,7.5v40c0,4.1,3.4,7.5,7.5,7.5h133.9c4.1,0,7.5-3.4,7.5-7.5
		L195.3,251.6L195.3,251.6z"/>
	<path class="st0" d="M68.9,229.1c12.4,0,22.5-10.1,22.5-22.5s-10.1-22.5-22.5-22.5s-22.5,10.1-22.5,22.5S56.5,229.1,68.9,229.1z
		 M68.9,199.1c4.1,0,7.5,3.4,7.5,7.5s-3.4,7.5-7.5,7.5s-7.5-3.4-7.5-7.5S64.8,199.1,68.9,199.1z"/>
	<path class="st0" d="M120.9,229.1c12.4,0,22.5-10.1,22.5-22.5s-10.1-22.5-22.5-22.5s-22.5,10.1-22.5,22.5S108.5,229.1,120.9,229.1z
		 M120.9,199.1c4.1,0,7.5,3.4,7.5,7.5s-3.4,7.5-7.5,7.5s-7.5-3.4-7.5-7.5S116.7,199.1,120.9,199.1z"/>
	<path class="st0" d="M79.9,309.1c-4.1,0-7.5,3.4-7.5,7.5v37.7H53.9c-4.1,0-7.5,3.4-7.5,7.5v59.8c0,4.1,3.4,7.5,7.5,7.5h52
		c4.1,0,7.5-3.4,7.5-7.5v-59.8c0-4.1-3.4-7.5-7.5-7.5H87.4v-37.7C87.4,312.5,84,309.1,79.9,309.1z M98.4,414.1h-37v-44.8h37V414.1
		L98.4,414.1z"/>
	<path class="st0" d="M161.9,429.1c4.1,0,7.5-3.4,7.5-7.5v-15.1h18.5c4.1,0,7.5-3.4,7.5-7.5v-59.8c0-4.1-3.4-7.5-7.5-7.5h-18.5
		v-15.1c0-9.4-15-9.8-15,0v15.1h-18.5c-4.1,0-7.5,3.4-7.5,7.5V399c0,4.1,3.4,7.5,7.5,7.5h18.5v15.1
		C154.4,425.8,157.7,429.1,161.9,429.1z M143.4,346.7h37v44.8h-37V346.7z"/>
	<path class="st0" d="M460.5,429.1c4.1,0,7.5-3.4,7.5-7.5v-235c0-4.1-3.4-7.5-7.5-7.5h-235c-4.1,0-7.5,3.4-7.5,7.5v235
		c0,4.1,3.4,7.5,7.5,7.5H460.5z M409.3,311.6H453v43.8h-43.8L409.3,311.6L409.3,311.6z M453,296.6h-43.8v-43.8H453V296.6z
		 M394.3,296.6h-43.8v-43.8h43.8V296.6z M335.5,296.6h-43.8v-43.8h43.8V296.6z M276.8,296.6H233v-43.8h43.8V296.6z M233,311.6h43.8
		v43.8H233V311.6z M291.8,311.6h43.8v43.8h-43.8V311.6z M350.5,311.6h43.8v43.8h-43.8V311.6z M453,414.1h-43.8v-43.8H453V414.1z
		 M453,237.9h-43.8v-43.8H453V237.9z M394.3,237.9h-43.8v-43.8h43.8V237.9z M335.5,237.9h-43.8v-43.8h43.8V237.9z M233,194.1h43.8
		v43.8H233V194.1z M233,370.4h43.8v43.8H233V370.4z M291.8,370.4h43.8v43.8h-43.8V370.4z M350.5,370.4h43.8v43.8h-43.8V370.4z"/>
</g>
</svg>
