<?xml version="1.0" encoding="utf-8"?>
<!-- Generator: Adobe Illustrator 25.1.0, SVG Export Plug-In . SVG Version: 6.00 Build 0)  -->
<svg version="1.1" id="Capa_1" xmlns="http://www.w3.org/2000/svg" xmlns:xlink="http://www.w3.org/1999/xlink" x="0px" y="0px"
	 viewBox="0 0 512 512" style="enable-background:new 0 0 512 512;" xml:space="preserve">
<style type="text/css">
	.st0{fill:#FFFFFF;}
</style>
<g>
	<path class="st0" d="M122.1,320.9c4.7,0,9.3-1.8,12.9-5.3l42.7-42.7c3-3,7.6,1.6,4.6,4.6c-6.6,6.6,3.7,17.5,10.6,10.6
		c16.7-16.7-9.2-42.5-25.8-25.8L124.4,305c-3,3-7.6-1.6-4.6-4.6c6.6-6.6-3.7-17.5-10.6-10.6C98,301,106.2,320.9,122.1,320.9
		L122.1,320.9z"/>
	<path class="st0" d="M260.3,355.3c16.7-16.7-9.2-42.5-25.8-25.8c-6.6,6.6,3.7,17.5,10.6,10.6c3-3,7.6,1.6,4.6,4.6L207,387.4
		c-16.6,16.6,9.2,42.5,25.8,25.8c6.6-6.6-3.7-17.5-10.6-10.6c-3,3-7.6-1.6-4.6-4.6L260.3,355.3z"/>
	<path class="st0" d="M252.2,29.6c6.6-6.6-3.7-17.5-10.6-10.6l-14.2,14.2l-28.6-11.7c-2.8-1.1-6-0.5-8.1,1.6L2.2,211.6
		c-3.7,3.7-2.4,10.3,2.5,12.2l22.8,9.3l-14,14c-6.9,6.9,3.8,17.4,10.6,10.6L252.2,29.6z M20.7,214.3l177-177l18.1,7.4l-176.9,177
		L20.7,214.3z"/>
	<path class="st0" d="M509.8,79.3l-11.9-11.9c8.8-8,10.3-21.8,1.6-30.5l-14-13.9c-8.8-8.6-22.4-7.1-30.4,1.7l-11.9-11.9
		c-6.6-6.6-17.5,3.7-10.6,10.6l11.9,11.9c-3.4,3-6,7-7,11.5L421,62.3c-7,6.6,3.3,17.5,10.3,10.9l9.9-9.4
		c4.8,6.2,11.2,12.6,17.4,17.4L284.5,265.3c-2.3,2.5-5.7,1.9-7.9-0.2l-19.2-19.2c-2.2-2.2-2.7-5.5-0.2-7.9L408.4,94.9
		c7-6.6-3.3-17.5-10.3-10.9l-34.6,32.7c-23.5,11.4-47.9,23-76.2,19.4c-36.7-4.8-72.5,12.4-104,27.7c-7.1,3.4-13.9,6.7-20.6,9.7
		c-4.7,2.1-5.9,8.5-2.2,12.1c11.7,11.7,14.2,32,1.9,44.3l-14.6,14.6c-11.7,11.7-31.6,10.8-44.3-1.9c-4.2-4.2-11.8-12.3-17-3.8
		c-4.4,7.3-9.7,15.1-15.3,23.4c-24.1,35.5-54,79.7-38.7,121.9c6.1,18,15.4,34.8,27.6,50.1l-25.3,25.3c-4.7,4.7-0.7,10.7,3.4,14
		l-15.1,15.1c-6.9,6.9,3.8,17.4,10.6,10.6l15.1-15.1c3.4,4,9.1,8.3,14,3.4l25.3-25.3c20.4,16.3,47.5,31.8,74.3,31.8
		c34.5,0,69-23.4,97.8-42.9c8.3-5.6,16.1-10.9,23.4-15.3c8.5-5.1,0.4-12.7-3.8-17c-12.7-12.7-13.6-32.6-1.9-44.3l14.6-14.6
		c12.3-12.3,32.6-9.8,44.3,1.9c3.7,3.7,10,2.5,12.1-2.2c3-6.7,18.5-38.9,22.6-48.4c3.8-8.9-10-14.8-13.8-5.9
		c-3.9,9.2-16.6,35.3-18.5,39.4c-17.7-11.6-42.1-10.6-57.4,4.7L267.4,364c-17.1,17.1-16.7,45.4,0.5,64c-5.2,3.3-10.5,7-16,10.7
		c-34.4,23.3-73.4,49.8-108.5,37c-16.1-5.7-31-13.6-44.5-24.2c4.1-4.1,8-8.6,12.4-12.4c10.7-9.2,25.8-9.9,36.8-18.8l15-12.1
		c6.2-5,6.9-14.7,1.4-20.6l32.6-32.6l4.3,4.3c6.8,6.8,17.5-3.7,10.6-10.6l-4.3-4.3l64.4-64.4c7.8,3.6,17.3,1.8,23.2-4.5l80.8-85.4
		c-4.6,14.4-6.9,29.8-4.7,46.9c1.6,12.4,0.4,25.7-3.6,40.5c-2.5,9.3,11.9,13.4,14.5,4c4.6-16.8,5.9-32,4-46.4
		c-3.7-28.3,7.9-52.7,19.4-76.2l70-74c4.5-1,8.4-3.7,11.5-7l11.9,11.9C505.9,96.7,516.7,86.2,509.8,79.3L509.8,79.3z M138.7,408.7
		c-11.4,9.2-27.3,9.2-38,19.9l-43.1,43.1l-6.8-6.8l37-37c6.6-6.6-3.7-17.5-10.6-10.6l-6.3,6.3c-10.7-13.6-18.8-28.5-24.1-44.3
		c0-0.1,0-0.1-0.1-0.2C34,344,60.4,305,83.8,270.6c3.8-5.5,7.4-10.9,10.7-16c18.6,17.2,46.9,17.6,64,0.5l14.6-14.6
		c15.3-15.3,16.3-39.7,4.7-57.4C211,167.4,247.2,146,285.4,151c17.1,2.2,32.5-0.2,46.9-4.7l-85.4,80.8c-6.2,5.9-8.1,15.4-4.5,23.2
		L178,314.6l-4.3-4.3c-6.6-6.6-17.5,3.7-10.6,10.6l4.3,4.3l-32.6,32.6c-5.8-5.4-15.5-4.8-20.6,1.4c-8.7,10.8-16.8,20.5-21.6,33.8
		c-3.3,9.1,10.8,14.2,14.1,5.1c4.1-11.4,11.1-19.4,18.6-28.7l27.7,27.7L138.7,408.7z M154,377.1l-8.6-8.6l32.6-32.6l8.6,8.6
		L154,377.1z M188.6,325.2l63.5-63.5l8.6,8.6l-63.5,63.5L188.6,325.2z M471.2,32.1c1.4,0,2.7,0.5,3.8,1.5l13.8,13.8
		c2.1,2.1,2.1,5.6,0,7.7l-13.7,13.7c-2.1,2.1-5.6,2.2-7.7,0l-12.6-12.6c-2.4-2.4-4-6-1.1-8.9l13.7-13.7
		C468.4,32.6,469.8,32.1,471.2,32.1L471.2,32.1z"/>
</g>
</svg>
