<?xml version="1.0" encoding="utf-8"?>
<!-- Generator: Adobe Illustrator 25.1.0, SVG Export Plug-In . SVG Version: 6.00 Build 0)  -->
<svg version="1.1" id="Capa_1" xmlns="http://www.w3.org/2000/svg" xmlns:xlink="http://www.w3.org/1999/xlink" x="0px" y="0px"
	 viewBox="0 0 512 512" style="enable-background:new 0 0 512 512;" xml:space="preserve">
<style type="text/css">
	.st0{fill:#FFFFFF;}
</style>
<g>
	<path class="st0" d="M95.1,358.9c-13.3,13.3-13.3,35,0,48.3l16.4,16.4c6.7,6.7,15.4,10,24.2,10s17.5-3.3,24.2-10
		c2.9-2.9,2.9-7.7,0-10.6l-54-54C102.8,355.9,98,355.9,95.1,358.9z M135.6,418.5c-5.1,0-9.9-2-13.5-5.6l-16.4-16.4
		c-5.2-5.2-7-13.9-4.2-20.7l41.3,41.3C140.5,418.1,138.1,418.5,135.6,418.5z"/>
	<path class="st0" d="M151.5,313.1c-6.9-6.9-17.5,3.8-10.6,10.6l29.7,29.7c6.9,6.9,17.5-3.8,10.6-10.6L151.5,313.1z"/>
	<path class="st0" d="M181.4,389.7c6.3,0,9.8-8.4,5.3-12.8L157,347.2c-6.9-6.9-17.5,3.8-10.6,10.6l29.7,29.7
		C177.5,389,179.5,389.7,181.4,389.7L181.4,389.7z"/>
	<circle class="st0" cx="126.4" cy="476.9" r="8.4"/>
	<path class="st0" d="M169.5,474.5c0-4.6-3.8-8.4-8.4-8.4c-4.6,0-8.4,3.8-8.4,8.4s3.8,8.4,8.4,8.4S169.5,479.1,169.5,474.5z"/>
	<path class="st0" d="M449.7,58.8c-2.9-2.9-7.7-2.9-10.6,0l-24.9,24.9c-6.9,6.9,3.8,17.5,10.6,10.6l24.9-24.9
		C452.7,66.5,452.7,61.8,449.7,58.8z"/>
	<path class="st0" d="M503.2,66.3l-9.5-6.5c10.1-17.8,15.2-37-2.7-52.5c-20-17.3-46.6-1.4-47,23.1l-53.2,31.3c-10,5.9-8.4,19-9,28.9
		L220.4,246.5c-4.4-10.2-9.1-20.8-16.3-29.4c-24.1-28.7-56-11.1-71.9,15.3c-8.9,14.9-19.1,31.7-50.3,42.4
		c-31,10.6-56.3,24.3-67.4,56.6c-1.7,4.9-3.2,9.9-4.4,14.8c-2.2,9.2,12.2,13.1,14.6,3.6c1.1-4.5,2.4-9.1,4-13.5
		c6-17.3,10.7-31,58.1-47.3c36.4-12.5,49-33.5,58.3-48.9c10.5-17.5,30.3-34,47.5-13.4c2,2.4,5.1,7,9.4,15.5
		c-8.8,4.4-20.5,10.6-33.7,18.2c-8.6,5-0.5,17.6,7.5,13c12.6-7.3,23.8-13.2,32.3-17.5c0.2,0.5,0.5,1.1,0.7,1.6l-32.5,31.4
		c-3,3.5-3.1,7.1-0.1,10.7l42.8,42.8c3,3,7.8,2.9,10.7-0.1l11-11.4c1.9,3.1,3.9,6.1,6.1,9.1c-13.1,23-32.7,53.9-55,78.8
		c-16.9,18.8-39.9,26.7-68.3,23.4c-17.3-2-31.6-7.7-37-10.1c-2.4-5.4-8.1-19.7-10.1-37c-3.3-28.4,4.6-51.4,23.4-68.3
		c12.8-11.5,28.5-23.4,46.5-35.3c8.1-5.3-0.1-17.9-8.3-12.5c-18.6,12.3-34.9,24.6-48.3,36.6c-35,31.5-36,85.4-15.6,125.5
		c0.7,1.4,1.9,2.6,3.3,3.3c17.5,8.9,38.5,13.5,58,13.5c27.1,0,50.3-9.9,67.5-29.1c21.8-24.2,40.8-53.7,54.3-76.8
		c5.6,5.9,19.9,16.9,11.7,25.9c-15.2,16.6-32,31.9-39.3,54c-15.6,46.8-28.9,51.5-47.3,58c-43.7,15.4-94.9,4.2-132.7-21.5
		c-4-4.9-29.5-37.9-29-86.3c0.1-9.7-14.9-9.9-15-0.1c-0.3,28.3,8.8,79.6,34.6,98.1c40.9,29.4,99.4,40.7,147.2,23.9
		c19.8-7,38.6-13.6,56.5-67.4c6.6-19.9,22.4-33.6,36.2-48.6c7.1-7.7,8.7-16.5,4.8-25.4c-7.2-16.3-24.2-27.4-33.3-42.9l117.9-122.1
		c3.2-3.3,5.6-7.9,1.6-12.1l-31.8-33.3l49.4-47.8l25.3,25.3l-29.6,30.6c-6.7,7,4.1,17.4,10.8,10.4l33-34.2
		c5.9-2.1,13.4-3.5,18.6-7.2l9.3,6.5c7.7,5.4,16.7-6.7,8.6-12.3l-8.6-6c1.5-2.1,3.1-4.4,4.7-6.8l9.4,6.2c7.8,5.1,16.6-7.1,8.3-12.5
		l-9.2-6.1c1.5-2.2,3-4.5,4.5-6.8l8.9,6.2c7.7,5.3,16.7-6.7,8.5-12.4l-9.3-6.4c1.4-2.2,2.7-4.3,4-6.4l8.6,6
		C502.4,84,511.3,71.9,503.2,66.3L503.2,66.3z M299.8,248.3l-29.1-29.5l20.3-19.6l28.6,28.6L299.8,248.3z M273,276.1l-30.3-30.2
		l17.3-16.7l29.5,29.9L273,276.1z M248.1,301.9L216.6,271l15.3-14.7l30.7,30.6L248.1,301.9z M224.2,326.6l-32-32l13.6-13.1
		l31.9,31.2L224.2,326.6z M355.3,190.9L330.1,217l-28.3-28.3l26.7-25.8L355.3,190.9z M437.6,117.8l-10.8,3.8l-14.9-14.9l-15.1-15.1
		l0.9-15.7c0-0.5,0.3-0.9,0.7-1.2l57.2-33.6c2.6-1.6,4.1-4.5,3.6-7.5c-1.7-12.7,10.3-25,22.1-14.9c5.6,4.9,8.5,12.4,7,18.3
		c-3.6,13.9-15,28.1-22.6,40c-8.3,12.8-16.8,25.5-25.6,38C439.2,115.8,438.8,117.4,437.6,117.8L437.6,117.8z"/>
</g>
</svg>
