<?xml version="1.0" encoding="utf-8"?>
<!-- Generator: Adobe Illustrator 25.1.0, SVG Export Plug-In . SVG Version: 6.00 Build 0)  -->
<svg version="1.1" id="Capa_1" xmlns="http://www.w3.org/2000/svg" xmlns:xlink="http://www.w3.org/1999/xlink" x="0px" y="0px"
	 viewBox="0 0 512 512" style="enable-background:new 0 0 512 512;" xml:space="preserve">
<style type="text/css">
	.st0{fill:#FFFFFF;}
</style>
<g>
	<path class="st0" d="M278,312.9c-21.2,0-38.4,17.2-38.4,38.4c0,21.2,17.2,38.4,38.4,38.4c21.2,0,38.4-17.2,38.4-38.4
		S299.2,312.9,278,312.9z M278,374.8c-12.9,0-23.4-10.5-23.4-23.4S265.1,328,278,328s23.4,10.5,23.4,23.4S290.9,374.8,278,374.8z"/>
	<path class="st0" d="M509.2,131.7c-5.8-10-19-13.6-29-7.8l-8.7,5c-8.4,4.8-0.9,17.8,7.5,13l8.7-5c7-4,13.3,6.8,6.3,10.8l-79.5,45.9
		c-7,4-13.3-6.8-6.3-10.8L451,158c8.4-4.8,0.9-17.8-7.5-13l-42.9,24.8c-23.7,13.7-2.5,50.6,21.3,36.8l28.4-16.4v237.9
		c0,9.7,15,9.7,15,0V181.5l36.1-20.8C511.5,154.8,515,141.8,509.2,131.7L509.2,131.7z"/>
	<path class="st0" d="M114.6,118.9h43.2c27.4,0,27.4-42.5,0-42.5H66c-27.4,0-27.4,42.5,0,42.5h25.1L2.7,192.3
		c-7.5,6.2,2.2,17.7,9.6,11.5l12.9-10.7v235.1c0,9.7,15,9.7,15,0V180.7L114.6,118.9z M59.7,97.7c0-3.5,2.8-6.3,6.3-6.3h91.9
		c8.1,0,8.1,12.5,0,12.5H66C62.5,103.9,59.7,101.1,59.7,97.7z"/>
	<path class="st0" d="M436.9,235.6c0-4.1-3.4-7.5-7.5-7.5H327.7c-7.8,0-7.5,7.9-7.5,13.4c-18.1-16.5-41.6-27.1-67.5-28.8v-27.5h8.3
		v9.1c0,4.1,3.4,7.5,7.5,7.5h80.8c4.1,0,7.5-3.4,7.5-7.5v-54.7c0-4.1-3.4-7.5-7.5-7.5h-80.8c-4.1,0-7.5,3.4-7.5,7.5v30.6h-31.7
		v-30.6c0-4.1-3.4-7.5-7.5-7.5h-80.7c-4.1,0-7.5,3.4-7.5,7.5v54.7c0,4.1,3.4,7.5,7.5,7.5h80.7c4.1,0,7.5-3.4,7.5-7.5v-9.1h8.3v27.5
		c-25.9,1.7-49.4,12.3-67.5,28.8v-5.9c0-4.1-3.4-7.5-7.5-7.5H61.1c-4.1,0-7.5,3.4-7.5,7.5v44c0,9.7,15,9.7,15,0v-11.5h80.1
		c-13.2,22.7-18,49.9-13.3,75.8H68.6v-32.3c0-9.7-15-9.7-15,0v39.8l0,0v76.9c0,9.7,15,9.7,15,0v-69.4h70.6
		c2.4,7.4,5.6,14.5,9.5,21.1l-26.5,44.3c-4.9,8.2,7.9,16,12.9,7.7l23-38.4c20.5,25.6,51.9,42,87.2,42c14.7,0,29.1-2.8,42.6-8.4
		c8.9-3.7,3.2-17.6-5.7-13.9c-11.7,4.8-24.1,7.3-36.9,7.3c-53.2,0-96.6-43.3-96.6-96.6s43.3-96.6,96.6-96.6
		c53.2,0,96.6,43.3,96.6,96.6c0,28.2-12.3,55-33.8,73.4c-7.4,6.3,2.4,17.7,9.8,11.4c5.4-4.6,10.3-9.7,14.7-15.2l10.1,16.9L331.2,423
		c-6.5,7.1,4.5,17.3,11.1,10.1l8.4-9.1l4.7,7.9c4.9,8.2,17.8,0.6,12.9-7.7l-7.1-11.8l17.4-19l35.7,39.7c6.5,7.2,17.6-2.9,11.1-10
		l-39.3-43.7v-65.9h43.3c4.1,0,7.5-3.4,7.5-7.5v-45.4l0,0L436.9,235.6L436.9,235.6z M341.8,147.1v39.7H276v-9.1l0,0l0,0v-30.6
		L341.8,147.1L341.8,147.1z M214.4,186.8h-65.7v-39.7h65.7V186.8z M68.6,243.1h86.6v10H68.6V243.1z M335.2,243.1h86.6v10h-86.6
		V243.1z M371.1,379.4l-18,19.6l-11.4-19c11.6-20,16.7-43.5,14.6-66.5h14.8V379.4z M421.9,298.5h-68c-2.5-10.8-6.7-21-12.1-30.4
		h80.1V298.5L421.9,298.5z"/>
</g>
</svg>
