<?xml version="1.0" encoding="utf-8"?>
<!-- Generator: Adobe Illustrator 25.1.0, SVG Export Plug-In . SVG Version: 6.00 Build 0)  -->
<svg version="1.1" id="Capa_1" xmlns="http://www.w3.org/2000/svg" xmlns:xlink="http://www.w3.org/1999/xlink" x="0px" y="0px"
	 viewBox="0 0 512 512" style="enable-background:new 0 0 512 512;" xml:space="preserve">
<style type="text/css">
	.st0{fill:#FFFFFF;}
</style>
<g>
	<path class="st0" d="M504.8,280.2c0-9.4-15-9.8-15,0v99.3H22.2v-255C22.2,64.1,74.8,15,139.4,15s117.2,49.1,117.2,109.5
		c0,27.6,23.7,50.1,52.9,50.1h104c42,0,76.2,31.8,76.2,71c0,9.4,15,9.8,15,0c0-47.4-40.9-86-91.2-86h-104
		c-20.9,0-37.9-15.7-37.9-35.1C271.7,55.8,212.4,0,139.4,0S7.2,55.8,7.2,124.5V424c0,9.4,15,9.8,15,0v-29.5h14.4v96.2
		c0,8.9-14.4,8.9-14.4,0v-31.3c0-9.4-15-9.8-15,0v31.3c0,25.9,39.3,29.4,44,4h409.5c4.7,25.4,44,22,44-4L504.8,280.2z M89.6,479.6
		h-38v-85.1h24.6V437c0,7.1,7.9,8.1,13.3,7.5L89.6,479.6L89.6,479.6z M102.9,429.5H91.3v-35H103L102.9,429.5L102.9,429.5z
		 M155.9,429.5h-11.7v-35h11.7V429.5z M261.8,429.5h-11.7v-35h11.7V429.5z M314.8,429.5h-11.7v-35h11.7V429.5z M367.8,429.5h-11.7
		v-35h11.7V429.5z M422.4,394.5h38v85.1h-38V394.5z M104.6,444.6c5.4,0.5,13.3-0.2,13.3-7.5v-42.6h11.3V437c0,7.1,7.9,8.1,13.3,7.5
		v35h-38L104.6,444.6z M157.6,444.6c5.4,0.5,13.3-0.2,13.3-7.5v-42.6h24.6v85.1h-38L157.6,444.6L157.6,444.6z M210.5,394.5h24.6V437
		c0,7.1,7.9,8.1,13.3,7.5v35h-38L210.5,394.5L210.5,394.5z M263.5,444.6c5.4,0.5,13.3-0.2,13.3-7.5v-42.6h11.3V437
		c0,7.1,7.9,8.1,13.3,7.5v35h-38L263.5,444.6z M316.5,444.6c5.4,0.5,13.4-0.2,13.4-7.5v-42.6h11.3V437c0,7.1,7.9,8.1,13.3,7.5v35
		h-38L316.5,444.6z M369.5,444.6c5.4,0.5,13.3-0.2,13.3-7.5v-42.6h24.6v85.1h-38v-35H369.5z M489.8,490.7c0,8.9-14.4,8.9-14.4,0
		v-96.2h14.4V490.7z"/>
	<path class="st0" d="M445.3,351.2H120.9c-9.4,0-9.8,15,0,15h324.4c29.5,0,29.5-45.8,0-45.8H65.6c-29.5,0-29.5,45.8,0,45.8h18.2
		c9.4,0,9.8-15,0-15H65.6c-9.9,0-10.3-15.8,0-15.8h379.8C455.2,335.4,455.7,351.2,445.3,351.2z"/>
</g>
</svg>
