<?xml version="1.0" encoding="utf-8"?>
<!-- Generator: Adobe Illustrator 25.1.0, SVG Export Plug-In . SVG Version: 6.00 Build 0)  -->
<svg version="1.1" id="Capa_1" xmlns="http://www.w3.org/2000/svg" xmlns:xlink="http://www.w3.org/1999/xlink" x="0px" y="0px"
	 viewBox="0 0 512 512" style="enable-background:new 0 0 512 512;" xml:space="preserve">
<style type="text/css">
	.st0{fill:#FFFFFF;}
</style>
<g>
	<path class="st0" d="M378,405.2c-4-1.2-8.2,1.1-9.3,5.1c-15,51-62.8,86.7-116.2,86.7c-65.6,0-121-54.3-121-120.1
		c0-46.8-24.4-80.2-49.9-106.6l42.1-42.1c6.6-6.6-3.7-17.6-10.6-10.6L65.7,265c-4.3,4.3-11.7,4.3-16,0l-8.6-8.6
		c-4.4-4.4-4.4-11.6,0-16l91.1-91.1c4.4-4.4,11.6-4.4,16,0l8.6,8.6c4.4,4.4,4.4,11.6,0,16l-18.2,18.2c-6.6,6.6,3.7,17.6,10.6,10.6
		l12.9-12.9c34,34.1,65.2,67,65.2,117.7v57.2c0,36.6,57.7,36.7,57.7,0v-91c10.9-2.7,19.7-11.5,22.5-22.5h6.8c9.4,0,9.8-15,0-15h-6.8
		c-2.7-10.9-11.5-19.7-22.5-22.5v-16c10.9-2.7,19.7-11.6,22.5-22.5h6.8c9.4,0,9.8-15,0-15h-6.8c-2.7-10.9-11.5-19.7-22.5-22.5v-16
		c10.9-2.7,19.7-11.5,22.5-22.5h6.8c9.4,0,9.8-15,0-15h-6.8C304.8,73.3,296,64.5,285,61.7V48.4c0-18.1,14.6-32.9,32.7-33.2l47.2,6.4
		c9.3,1.3,11.8-13.6,2-14.9l-47.7-6.5c-16.5-2.2-34.2,10-42.3,23.3c-7.2,12-7,24.7-7,38.1c-13.4,3.4-23.4,15.5-23.4,30
		s10,26.6,23.4,30v16c-13.4,3.4-23.4,15.5-23.4,30s10,26.6,23.4,30v16c-13.4,3.4-23.4,15.5-23.4,30c0,14.5,10,26.6,23.4,30v91
		c0,17.2-27.6,17.3-27.6,0v-57.2c0-57.1-35.3-93.9-70.4-129.1c5.5-10.1,3.6-23-4.5-31.2l-8.6-8.6c-10.3-10.3-27-10.3-37.2,0
		l-91.1,91.1c-10.3,10.3-10.3,27,0,37.2l8.6,8.6c8.1,8.1,21,10,31.1,4.6c24.6,25.3,46.3,54.8,46.3,96.8c0,73.8,62.6,135.1,136,135.1
		c60,0,113.8-40.1,130.6-97.5C384.3,410.6,382,406.4,378,405.2L378,405.2z M261.6,91.6c0-8.8,7.1-15.9,15.9-15.9s15.9,7.1,15.9,15.9
		s-7.1,15.9-15.9,15.9S261.6,100.4,261.6,91.6z M261.6,167.6c0-8.8,7.1-15.9,15.9-15.9s15.9,7.1,15.9,15.9c0,8.8-7.1,15.9-15.9,15.9
		S261.6,176.4,261.6,167.6z M261.6,243.6c0-8.8,7.1-15.9,15.9-15.9s15.9,7.1,15.9,15.9c0,8.8-7.1,15.9-15.9,15.9
		S261.6,252.4,261.6,243.6L261.6,243.6z"/>
	<path class="st0" d="M481.7,15.7h-48.2L405.6,12c-9.3-1.3-11.8,13.6-2,14.9l21.9,3v12.5h-55.1c-18.5,0-33.3,16.9-30.8,35.3
		l27,198.5c4.6,33.4,6.8,67.1,6.8,100.8c0,9.4,15,9.8,15,0c0-19.2-0.8-38.4-2.2-57.5c16.5-4.1,27.7-20.6,25.2-37.5l-21.2-145.6
		c-2.3-15.8-15.7-27.9-31.5-28.7l-4.4-32c-1.3-9.4,6.4-18.2,15.9-18.2h62.5c0,0,0,0,0.1,0h48.7c4.1,0,7.5-3.4,7.5-7.5V23.2
		C489.2,19.1,485.9,15.7,481.7,15.7L481.7,15.7z M375.5,138.5l21.2,145.6c1.2,8.4-3.7,16.9-11.7,20c-1-10-2.1-20.1-3.5-30L361,123
		C368.4,124.6,374.3,130.7,375.5,138.5L375.5,138.5z M474.2,42.4h-33.7V30.8h33.7V42.4z"/>
	<ellipse class="st0" cx="307.7" cy="304.6" rx="8.3" ry="8.3"/>
	<ellipse class="st0" cx="307.5" cy="350.4" rx="8.3" ry="8.3"/>
</g>
</svg>
