<?xml version="1.0" encoding="utf-8"?>
<!-- Generator: Adobe Illustrator 25.1.0, SVG Export Plug-In . SVG Version: 6.00 Build 0)  -->
<svg version="1.1" id="Capa_1" xmlns="http://www.w3.org/2000/svg" xmlns:xlink="http://www.w3.org/1999/xlink" x="0px" y="0px"
	 viewBox="0 0 512 512" style="enable-background:new 0 0 512 512;" xml:space="preserve">
<style type="text/css">
	.st0{fill:#FFFFFF;}
</style>
<g>
	<path class="st0" d="M504.5,60.4H7.5c-4.1,0-7.5,3.4-7.5,7.5v376.2c0,4.1,3.4,7.5,7.5,7.5h293.7c9.4,0,9.8-15,0-15h-5.5V397
		c5.7,0,15.7,1.3,15.7-7.5v-47.1h16v47.1c0,8.8,10,7.5,15.7,7.5v39.6h-6.2c-9.4,0-9.8,15,0,15h167.6c4.1,0,7.5-3.4,7.5-7.5V219.4
		c0-9.4-15-9.8-15,0V289h-14V187.3c0-4.1-3.4-7.5-7.5-7.5H128.9c-4.1,0-7.5,3.4-7.5,7.5V289H15V155.7h482v31.6c0,9.4,15,9.8,15,0
		V67.9C512,63.8,508.6,60.4,504.5,60.4z M85.2,397h8.2v39.6H46v-94.2h31.7v47.1C77.7,393.6,81,397,85.2,397z M92.7,382v-39.6h16.4
		V382H92.7z M108.4,397c5.7,0,15.7,1.3,15.7-7.5v-47.1h16v47.1c0,8.8,10,7.5,15.7,7.5v39.6h-47.4V397z M155.1,382v-39.6h16.4V382
		H155.1z M170.8,397c5.7,0,15.7,1.3,15.7-7.5v-47.1h31.7v94.2h-47.4L170.8,397z M280.7,436.6h-47.4v-94.2H265v47.1
		c0,8.8,10,7.5,15.7,7.5V436.6z M296.5,382H280v-39.6h16.5V382z M342.4,382v-39.6h16.5V382H342.4z M358.2,397
		c5.7,0,15.7,1.3,15.7-7.5v-47.1h16v47.1c0,8.8,10,7.5,15.7,7.5v39.6h-47.4L358.2,397L358.2,397z M404.9,382v-39.6h16.5V382H404.9z
		 M420.6,397c5.7,0,15.7,1.3,15.7-7.5v-47.1H468v94.2h-47.4V397z M439.8,241.9v-47.1H468V289h-42.8v-39.6
		C430.9,250.1,439.8,249.7,439.8,241.9z M424.8,234.4h-14.1v-39.6h14.1V234.4z M382,241.9v-47.1h13.7v47.1c0,7.7,9,8.1,14.5,7.5V289
		h-42.8v-39.6C373.1,250.1,382,249.7,382,241.9z M367,234.4h-14.1v-39.6H367V234.4z M345.4,249.4h7.1V289h-42.8v-94.2h28.2v47.1
		C337.9,246.1,341.3,249.4,345.4,249.4z M266.5,241.9v-47.1h28.2V289H252v-39.6C257.5,250.1,266.5,249.7,266.5,241.9z M251.5,234.4
		h-14.1v-39.6h14.1V234.4z M208.7,241.9v-47.1h13.7v47.1c0,7.7,9,8.1,14.6,7.5V289h-42.8v-39.6C199.8,250.1,208.7,249.7,208.7,241.9
		L208.7,241.9z M193.7,234.4h-14.1v-39.6h14.1V234.4z M136.4,194.8h28.2v47.1c0,7.7,9,8.1,14.6,7.5V289h-42.8V194.8z M497,304v132.6
		h-14V334.9c0-4.1-3.4-7.5-7.5-7.5h-437c-4.1,0-7.5,3.4-7.5,7.5v101.7H15V304H497z M15,75.4h482v65.3H15V75.4z"/>
	<path class="st0" d="M348.6,88.1H163.4c-4.1,0-7.5,3.4-7.5,7.5v25c0,4.1,3.4,7.5,7.5,7.5h185.2c4.1,0,7.5-3.4,7.5-7.5v-25
		C356.1,91.4,352.8,88.1,348.6,88.1z M341.1,113.1H170.9v-10h170.2L341.1,113.1L341.1,113.1z"/>
	<path class="st0" d="M38.5,179.8c-4.1,0-7.5,3.4-7.5,7.5v83.5c0,4.1,3.4,7.5,7.5,7.5h61c4.1,0,7.5-3.4,7.5-7.5v-83.5
		c0-4.1-3.4-7.5-7.5-7.5L38.5,179.8z M46,194.8h46v43.5H46V194.8z M92,263.4H46v-10h46V263.4z"/>
	<circle class="st0" cx="54.1" cy="108.2" r="7.5"/>
	<circle class="st0" cx="85.2" cy="108.2" r="7.5"/>
	<circle class="st0" cx="116.3" cy="108.2" r="7.5"/>
	<path class="st0" d="M463.3,100.7h-72.5c-9.4,0-9.8,15,0,15h72.5C472.7,115.7,473.1,100.7,463.3,100.7z"/>
</g>
</svg>
