<?xml version="1.0" encoding="utf-8"?>
<!-- Generator: Adobe Illustrator 25.1.0, SVG Export Plug-In . SVG Version: 6.00 Build 0)  -->
<svg version="1.1" id="Capa_1" xmlns="http://www.w3.org/2000/svg" xmlns:xlink="http://www.w3.org/1999/xlink" x="0px" y="0px"
	 viewBox="0 0 512 512" style="enable-background:new 0 0 512 512;" xml:space="preserve">
<style type="text/css">
	.st0{fill:#FFFFFF;}
</style>
<g>
	<path class="st0" d="M224.9,185.5h248.6c4.1,0,7.5-3.4,7.5-7.5V76.2c0-4.1-3.4-7.5-7.5-7.5H280c-9.7,0-9.7,15,0,15h186v25.2
		c-9,3.1-15.5,11.7-15.5,21.8c0,10.3-16.1,10.3-16.1,0c0-29.8-46.1-29.9-46.1,0c0,10.3-16.1,10.3-16.1,0c0-29.6-46.1-29.7-46.1,0
		c0,10.3-16.1,10.3-16.1,0c0-29.8-46.1-29.9-46.1,0c0,10.3-16.1,10.3-16.1,0c0-10.1-6.5-18.7-15.5-21.8V83.7h11.9c9.7,0,9.7-15,0-15
		h-19.4c-4.1,0-7.5,3.4-7.5,7.5V178C217.4,182.2,220.8,185.5,224.9,185.5L224.9,185.5z M233,130.7c0,12.7,10.3,23,23,23
		c12.7,0,23-10.3,23-23c0-10.3,16.1-10.3,16.1,0c0,29.6,46.1,29.7,46.1,0c0-10.3,16.1-10.3,16.1,0c0,29.6,46.1,29.7,46.1,0
		c0-10.3,16.1-10.3,16.1,0c0,29.6,46.1,29.7,46.1,0c0-1,0.2-2,0.5-2.9v42.7H232.4v-42.7C232.8,128.7,233,129.7,233,130.7L233,130.7z
		"/>
	<path class="st0" d="M64.6,439c4.1,0,7.5-3.4,7.5-7.5v-64.1c6.2,0,19.7,2.3,19.7-7.5v-45c0-9.8-13.4-7.5-19.7-7.5v-39.1
		c0-9.7-15-9.7-15,0v39.1c-6.2,0-19.7-2.3-19.7,7.5v45c0,9.8,13.4,7.5,19.7,7.5v64.1C57.1,435.7,60.5,439,64.6,439z M52.4,322.4
		h24.4v30H52.4V322.4z"/>
	<path class="st0" d="M141.2,439c4.1,0,7.5-3.4,7.5-7.5v-86.6c6.2,0,19.7,2.3,19.7-7.5v-45c0-9.8-13.4-7.5-19.7-7.5v-16.6
		c0-9.7-15-9.7-15,0v16.6c-6.2,0-19.7-2.3-19.7,7.5v45c0,9.8,13.4,7.5,19.7,7.5v86.6C133.7,435.7,137,439,141.2,439L141.2,439z
		 M129,299.9h24.4v30H129V299.9z"/>
	<path class="st0" d="M217.7,439c4.1,0,7.5-3.4,7.5-7.5v-57c6.2,0,19.7,2.3,19.7-7.5v-45c0-9.8-13.4-7.5-19.7-7.5v-46.2
		c0-9.7-15-9.7-15,0v46.2c-6.2,0-19.7-2.3-19.7,7.5v45c0,9.8,13.4,7.5,19.7,7.5v57C210.2,435.7,213.6,439,217.7,439z M205.5,329.5
		h24.4v30h-24.4V329.5z"/>
	<path class="st0" d="M294.3,439c4.1,0,7.5-3.4,7.5-7.5v-43.4c6.2,0,19.7,2.3,19.7-7.5v-45c0-9.8-13.4-7.5-19.7-7.5v-59.8
		c0-9.7-15-9.7-15,0v59.8c-6.2,0-19.7-2.3-19.7,7.5v45c0,9.8,13.4,7.5,19.7,7.5v43.4C286.8,435.7,290.1,439,294.3,439z M282.1,343.1
		h24.4v30h-24.4V343.1z"/>
	<path class="st0" d="M370.8,439c4.1,0,7.5-3.4,7.5-7.5V320.8c6.2,0,19.7,2.3,19.7-7.5v-45c0-4.1-3.4-7.5-7.5-7.5h-39.4
		c-4.1,0-7.5,3.4-7.5,7.5v45c0,9.8,13.4,7.5,19.7,7.5v110.7C363.3,435.7,366.7,439,370.8,439L370.8,439z M358.6,275.8H383v30h-24.4
		V275.8z"/>
	<path class="st0" d="M447.4,260.8c-4.1,0-7.5,3.4-7.5,7.5v39.1c-6.2,0-19.7-2.3-19.7,7.5v45c0,9.8,13.4,7.5,19.7,7.5v64.1
		c0,9.7,15,9.7,15,0v-64.1c6.2,0,19.7,2.3,19.7-7.5v-45c0-9.8-13.4-7.5-19.7-7.5v-39.1C454.9,264.1,451.5,260.8,447.4,260.8z
		 M459.6,352.4h-24.4v-30h24.4V352.4z"/>
	<path class="st0" d="M504.5,38.2H7.5c-4.1,0-7.5,3.4-7.5,7.5v420.5c0,4.1,3.4,7.5,7.5,7.5h326.4c9.7,0,9.7-15,0-15H15V216h16v21.4
		c0,4.1,3.4,7.5,7.5,7.5h435c4.1,0,7.5-3.4,7.5-7.5V216h16v242.7H370.8c-9.7,0-9.7,15,0,15h133.7c4.1,0,7.5-3.4,7.5-7.5V45.7
		C512,41.6,508.6,38.2,504.5,38.2L504.5,38.2z M466,229.9H46V216h38.3c9.7,0,9.7-15,0-15H15V53.2h482V201H121.5c-9.7,0-9.7,15,0,15
		H466V229.9z"/>
	<path class="st0" d="M76.3,103.2c-15.9,0-28.9,13-28.9,28.9s13,28.9,28.9,28.9s28.9-13,28.9-28.9S92.3,103.2,76.3,103.2z
		 M76.3,146.1c-7.7,0-13.9-6.2-13.9-13.9s6.2-13.9,13.9-13.9s13.9,6.2,13.9,13.9C90.3,139.8,84,146.1,76.3,146.1z"/>
	<path class="st0" d="M158.3,161.1c15.9,0,28.9-13,28.9-28.9s-13-28.9-28.9-28.9s-28.9,13-28.9,28.9S142.3,161.1,158.3,161.1z
		 M158.3,118.2c7.7,0,13.9,6.2,13.9,13.9S166,146,158.3,146s-13.9-6.2-13.9-13.9C144.3,124.5,150.6,118.2,158.3,118.2z"/>
</g>
</svg>
